<?xml version="1.0" encoding="UTF-8"?> <svg xmlns="http://www.w3.org/2000/svg" width="467" height="116" viewBox="0 0 467 116" fill="none"><g clip-path="url(#clip0_2204_807)"><path d="M247.779 98.2751H317.184C319.651 98.2751 321.643 100.282 321.643 102.766V116.048H252.239C249.772 116.048 247.779 114.041 247.779 111.557V98.2751V98.2751Z" fill="white"></path><path d="M247.779 74.6737V56.8533H317.184C319.651 56.8533 321.643 58.8599 321.643 61.3442V74.6737H247.779Z" fill="white"></path><path d="M4.45937 15.4795H17.7426V98.2274H72.5833V116.048H0V19.9704C0 17.4861 1.99248 15.4795 4.45937 15.4795Z" fill="white"></path><mask id="mask0_2204_807" style="mask-type:alpha" maskUnits="userSpaceOnUse" x="76" y="15" width="95" height="101"><path d="M170.975 115.952H155.225C153.327 115.952 151.666 114.758 151.05 112.99L123.772 36.2142H122.349L96.8258 112.895C96.2091 114.71 94.5012 115.952 92.6036 115.952H76.8535L110.489 18.3937C111.105 16.626 112.813 15.4316 114.663 15.4316H131.315C133.165 15.4316 134.778 16.5783 135.442 18.2504L170.975 115.952Z" fill="url(#paint0_linear_2204_807)"></path></mask><g mask="url(#mask0_2204_807)"><path d="M-29 23C-29 15.268 -22.732 9 -15 9H276V122H-29V23Z" fill="url(#paint1_linear_2204_807)"></path></g><path d="M199.011 116H185.68V75.7727L151.998 15.4316H169.598C171.211 15.4316 172.682 16.2916 173.488 17.7249L203.423 71.6639V111.557C203.423 114.041 201.431 116 199.011 116Z" fill="white"></path><path d="M198.773 45.9128L216.089 17.6294C216.896 16.2917 218.319 15.4795 219.884 15.4795H238.338L209.02 62.8732L198.773 45.9128Z" fill="white"></path><path d="M339.338 64.4498H377.005C388.581 64.4498 395.982 58.2867 395.982 47.6327C395.982 37.7431 389.719 33.2044 376.863 33.2044H245.691V19.9704C245.691 17.4861 247.684 15.4795 250.151 15.4795H379.045C401.579 15.4795 414.151 26.9935 414.151 47.2027C414.151 57.9523 408.743 71.1863 396.598 77.206L419.844 116H399.302L379.52 80.5026H357.128V111.509C357.128 113.993 355.136 116 352.669 116H339.433V64.4498H339.338Z" fill="white"></path><path d="M444.94 0C432.795 0 422.928 9.9374 422.928 22.168C422.928 34.3987 432.795 44.3361 444.94 44.3361C457.085 44.3361 466.952 34.3987 466.952 22.168C467 9.9374 457.132 0 444.94 0ZM444.94 39.7018C435.31 39.7018 427.529 31.8666 427.529 22.168C427.529 12.4695 435.31 4.63427 444.94 4.63427C454.57 4.63427 462.35 12.4695 462.35 22.168C462.35 31.8666 454.57 39.7018 444.94 39.7018Z" fill="white"></path><path d="M433.84 24.4136V15.6228H436.449V24.0314C436.449 25.9902 437.73 26.9935 439.628 26.9935C439.628 27.4235 439.628 29.5734 439.628 29.5734C436.402 29.6212 433.84 27.949 433.84 24.4136Z" fill="white"></path><path d="M439.484 29.6213C439.484 29.6213 439.484 27.4236 439.484 27.0414C441.382 27.0414 442.663 26.0381 442.663 24.0793V22.1682H445.272V24.5092C445.225 27.9491 442.663 29.6213 439.484 29.6213Z" fill="white"></path><path d="M445.226 15.6228H442.617V22.407H445.226V15.6228Z" fill="white"></path><path d="M450.491 24.8436V29.5735H447.834V22.5026H450.301H451.819C453.527 22.5026 454.476 21.6426 454.476 20.2094C454.476 18.7761 453.717 18.0117 451.819 18.0117H447.645V15.6707H452.246C455.994 15.6707 457.275 17.6295 457.275 20.1616C457.275 22.6937 455.804 24.8914 452.246 24.8914H450.491V24.8436Z" fill="white"></path></g><defs><linearGradient id="paint0_linear_2204_807" x1="123.914" y1="15.4316" x2="123.914" y2="115.952" gradientUnits="userSpaceOnUse"><stop stop-color="white"></stop><stop offset="0.5" stop-color="#CFCFCF"></stop><stop offset="1" stop-color="#999999"></stop></linearGradient><linearGradient id="paint1_linear_2204_807" x1="123.5" y1="9" x2="123.5" y2="122" gradientUnits="userSpaceOnUse"><stop stop-color="#7900E5"></stop><stop offset="0.505208" stop-color="#EF107E"></stop><stop offset="1" stop-color="#F9C214"></stop></linearGradient><clipPath id="clip0_2204_807"><rect width="467" height="116" fill="white"></rect></clipPath></defs></svg> 